PathFileType	4	(X/Y/Z)
DataRate	CameraRate	NumFrames	NumMarkers	Units	OrigDataRate	OrigDataStartFrame	OrigNumFrames	
  100.0	  100.0	    4	     56	     mm	  100.0	      1	    317
Frame#	Time	LASI			RASI			LPSI			RPSI			RTH1			RTH2			RTH3			RLFC			RMFC			LTH1			LTH2			LTH3			LLFC			LMFC			RTB1			RTB2			RTB3			RLMAL			RMMAL			LTB1			LTB2			LTB3			LMMAL			LLMAL			RCAL			RTOE			RMT5			LCAL			LTOE			LMT5			LACR			RACR			CLAV			C7			LASH			LPSH			RASH			RPSH			RUA1			RUA2			RUA3			RLEL			RMEL			LUA1			LUA2			LUA3			LLEL			LMEL			RFAsuperior			RFAradius			RFAulna			LFAsuperior			LFAradius			LFAulna			RHJC			LHJC			
		X1	Y1	Z1	X2	Y2	Z2	X3	Y3	Z3	X4	Y4	Z4	X5	Y5	Z5	X6	Y6	Z6	X7	Y7	Z7	X8	Y8	Z8	X9	Y9	Z9	X10	Y10	Z10	X11	Y11	Z11	X12	Y12	Z12	X13	Y13	Z13	X14	Y14	Z14	X15	Y15	Z15	X16	Y16	Z16	X17	Y17	Z17	X18	Y18	Z18	X19	Y19	Z19	X20	Y20	Z20	X21	Y21	Z21	X22	Y22	Z22	X23	Y23	Z23	X24	Y24	Z24	X25	Y25	Z25	X26	Y26	Z26	X27	Y27	Z27	X28	Y28	Z28	X29	Y29	Z29	X30	Y30	Z30	X31	Y31	Z31	X32	Y32	Z32	X33	Y33	Z33	X34	Y34	Z34	X35	Y35	Z35	X36	Y36	Z36	X37	Y37	Z37	X38	Y38	Z38	X39	Y39	Z39	X40	Y40	Z40	X41	Y41	Z41	X42	Y42	Z42	X43	Y43	Z43	X44	Y44	Z44	X45	Y45	Z45	X46	Y46	Z46	X47	Y47	Z47	X48	Y48	Z48	X49	Y49	Z49	X50	Y50	Z50	X51	Y51	Z51	X52	Y52	Z52	X53	Y53	Z53	X54	Y54	Z54	X55	Y55	Z55	X56	Y56	Z56	

73	0.73000	764.91964	1032.42653	-421.21592	506.56583	1035.33441	-442.49568	698.17009	1086.10521	-597.62191	604.06903	1084.71690	-609.17441	437.68059	872.29681	-507.95072	429.38250	771.98498	-477.07042	433.77033	637.91730	-549.25367	428.36250	520.43489	-527.71514	545.22003	513.24337	-500.45196	837.31370	896.95865	-516.70307	845.85378	768.33905	-463.54572	844.02685	652.67694	-547.73998	849.07254	492.28455	-549.91223	734.13025	474.23294	-528.19052	450.58164	369.44638	-495.39658	401.43883	276.32034	-554.68592	447.81295	194.14555	-521.54761	399.10468	121.75563	-579.07502	486.21965	128.52788	-542.15527	828.51160	364.60239	-510.59242	870.41321	312.97983	-558.96095	835.10249	226.60530	-528.65180	789.02136	133.67720	-542.70611	874.17344	127.12165	-578.96714	454.52222	103.25883	-642.77697	422.91096	79.03516	-408.54629	351.98492	59.08015	-437.58631	803.16096	103.29636	-640.19660	860.86694	77.46435	-403.25546	934.45826	58.80583	-454.90362	788.16333	1572.89266	-531.50667	479.66125	1558.51307	-562.53551	594.58854	1510.58816	-475.46325	637.39026	1577.99841	-591.59897	759.31740	1524.47384	-455.34971	821.95454	1503.26310	-590.99538	507.00809	1513.49084	-491.09662	456.36319	1506.29037	-619.21058	346.94443	1525.78210	-548.50738	322.44314	1475.08722	-576.37560	266.01856	1500.61209	-526.24265	185.11845	1493.15973	-498.84053	205.22987	1404.28421	-496.29538	909.91468	1521.43347	-521.06412	943.55418	1440.31800	-531.16939	1007.71268	1474.13839	-470.90853	1072.83461	1454.92537	-441.98183	1040.72058	1369.55772	-431.57396	194.48391	1509.74050	-408.13702	193.99329	1488.30812	-224.95171	127.07292	1506.28737	-245.45749	1077.41578	1474.89546	-353.22391	1041.04140	1460.04115	-170.48683	1112.63903	1464.96249	-174.37184	546.33405	946.89290	-521.06876	747.91483	934.36743	-503.86364	
74	0.74000	764.93008	1032.41391	-421.15767	506.58956	1035.33580	-442.44786	698.10848	1086.12575	-597.51060	604.03185	1084.72248	-609.10229	437.71630	872.23348	-507.91856	429.40497	771.95913	-477.02865	433.78476	637.90205	-549.30364	428.39346	520.41821	-527.71227	545.23872	513.23818	-500.44265	837.29275	896.95653	-516.63821	845.75720	768.35022	-463.43944	843.99874	652.68031	-547.62168	849.04619	492.29242	-549.84874	734.15602	474.30752	-528.01683	450.60003	369.43378	-495.36393	401.45398	276.33371	-554.68541	447.81257	194.12373	-521.54618	399.11311	121.75824	-579.06562	486.20417	128.51459	-542.12668	828.51054	364.58672	-510.56021	870.38995	312.97990	-558.91651	835.09350	226.56490	-528.59582	789.02597	133.67958	-542.66798	874.17078	127.13314	-578.96018	454.32182	103.08586	-642.50901	422.90779	79.04383	-408.53135	351.96951	59.08571	-437.58056	803.20560	103.34866	-640.31305	860.88611	77.48046	-403.32810	934.44930	58.80842	-454.91228	788.13296	1572.93333	-531.44270	479.60752	1558.57811	-562.65541	594.57951	1510.59426	-475.44291	637.31970	1578.00567	-591.56570	759.30034	1524.49758	-455.32940	821.92772	1503.27841	-590.98100	506.99123	1513.50477	-491.09014	456.30645	1506.28256	-619.15032	346.91815	1525.75214	-548.47755	322.39431	1475.06031	-576.32158	265.94623	1500.58808	-526.22457	185.08131	1493.18404	-498.82616	205.21524	1404.23602	-496.24883	909.88866	1521.46723	-521.03921	943.53221	1440.33749	-531.16886	1007.68036	1474.15743	-470.87322	1072.81002	1454.94269	-441.97217	1040.69891	1369.58912	-431.55330	194.40097	1509.65262	-408.14053	193.96288	1488.28522	-224.92332	127.05465	1506.27686	-245.46680	1077.37287	1474.92563	-353.15466	1040.96451	1460.12390	-170.43151	1112.58575	1465.12386	-174.15590	546.32573	946.89139	-520.98728	747.91370	934.37851	-503.85396	
75	0.75000	764.93877	1032.40120	-421.12429	506.60968	1035.34410	-442.40846	698.05384	1086.14077	-597.40969	603.98865	1084.73159	-609.01984	437.76506	872.18126	-507.91285	429.42953	771.95559	-476.96978	433.75678	637.89940	-549.27069	428.42404	520.41784	-527.78376	545.25701	513.24934	-500.50777	837.27245	896.95988	-516.57528	845.67604	768.36000	-463.34454	843.97868	652.68237	-547.50940	849.02654	492.30239	-549.78746	734.16662	474.33704	-527.93682	450.61352	369.42486	-495.33187	401.46474	276.34064	-554.67970	447.81687	194.11129	-521.54251	399.11961	121.76114	-579.05629	486.19360	128.50972	-542.11320	828.51227	364.57355	-510.53146	870.36847	312.98185	-558.87693	835.09423	226.55433	-528.57998	789.02932	133.68123	-542.65278	874.17160	127.14542	-578.95771	454.23542	103.02744	-642.39833	422.90656	79.04917	-408.52428	351.95640	59.09355	-437.57419	803.22482	103.37603	-640.36669	860.88858	77.48465	-403.35313	934.44023	58.80795	-454.91554	788.10649	1572.96251	-531.40461	479.57140	1558.61909	-562.72262	594.58277	1510.60419	-475.43749	637.25527	1578.02047	-591.53072	759.28580	1524.52445	-455.31422	821.90085	1503.28636	-590.98884	506.97929	1513.51126	-491.08226	456.24054	1506.26322	-619.07776	346.88697	1525.73171	-548.45755	322.34519	1475.03458	-576.26051	265.89513	1500.55948	-526.20306	185.05481	1493.16379	-498.80890	205.20505	1404.19599	-496.19211	909.86377	1521.50349	-521.01712	943.48910	1440.37574	-531.12475	1007.64836	1474.18194	-470.83976	1072.78405	1454.96439	-441.96147	1040.67691	1369.61973	-431.53076	194.35355	1509.58246	-408.12601	193.93608	1488.27239	-224.88714	127.01182	1506.27233	-245.44636	1077.34794	1474.95816	-353.10484	1040.90268	1460.19281	-170.39784	1112.54814	1465.18661	-174.11140	546.31109	946.89672	-520.91874	747.90533	934.38644	-503.85492	
76	0.76000	764.94606	1032.39515	-421.09829	506.62302	1035.35910	-442.38161	698.01431	1086.14861	-597.32820	603.94795	1084.74183	-608.93923	437.81194	872.15306	-507.91907	429.45326	771.98044	-476.89057	433.67105	637.91009	-549.14679	428.45132	520.42909	-527.90572	545.27210	513.27204	-500.62341	837.25694	896.96997	-516.51492	845.62088	768.36884	-463.26664	843.96975	652.68380	-547.41050	849.01768	492.31580	-549.73327	734.16222	474.32117	-527.95595	450.62045	369.42085	-495.30473	401.46987	276.33883	-554.67503	447.82439	194.11091	-521.53745	399.12298	121.76416	-579.05114	486.18796	128.51455	-542.11609	828.51638	364.56644	-510.50999	870.35351	312.98647	-558.84372	835.10198	226.57124	-528.59918	789.02902	133.68269	-542.66093	874.17506	127.15661	-578.95811	454.26768	103.08358	-642.45055	422.90898	79.04839	-408.52730	351.94672	59.10230	-437.56903	803.21589	103.37533	-640.34770	860.87750	77.47699	-403.33345	934.43304	58.80855	-454.92327	788.08251	1572.98076	-531.40017	479.55518	1558.61939	-562.70808	594.59341	1510.61792	-475.44665	637.20348	1578.04013	-591.49892	759.27344	1524.55409	-455.30932	821.87545	1503.28958	-591.01107	506.97195	1513.51242	-491.07345	456.17533	1506.23590	-619.00838	346.85436	1525.71594	-548.43608	322.30195	1475.00967	-576.20059	265.86475	1500.52967	-526.17670	185.03451	1493.09621	-498.78976	205.19518	1404.15840	-496.12938	909.84199	1521.54003	-521.00052	943.43414	1440.42636	-531.04788	1007.62018	1474.21504	-470.81038	1072.76095	1454.99410	-441.95133	1040.65872	1369.65422	-431.50640	194.34327	1509.53782	-408.09248	193.91594	1488.26981	-224.84761	126.95243	1506.26990	-245.39548	1077.33903	1475.00020	-353.07362	1040.86102	1460.24662	-170.38995	1112.52908	1465.13871	-174.26248	546.29684	946.90571	-520.86142	747.89584	934.39493	-503.85243	
